<svg width="611" height="517" viewBox="0 0 611 517" fill="none" xmlns="http://www.w3.org/2000/svg">
<path d="M273.134 128.558C251.752 123.235 233.395 112.773 219.043 95.5028C217.949 94.8325 217.166 93.7557 216.865 92.5084C216.564 91.2612 216.77 89.9455 217.437 88.85L242.401 47.9992C243.071 46.9052 244.148 46.1217 245.396 45.8206C246.643 45.5196 247.958 45.7255 249.054 46.3933L303.145 79.4482C304.239 80.1185 305.023 81.1953 305.324 82.4425C305.625 83.6897 305.419 85.0054 304.751 86.101L279.787 126.952C279.117 128.046 278.04 128.829 276.793 129.13C275.546 129.431 274.23 129.225 273.134 128.558Z" fill="#E6E6E6"/>
<path d="M258.711 115.44C247.453 114.211 235.753 105.213 223.937 94.1895C222.912 93.5618 222.178 92.5533 221.896 91.3852C221.615 90.2172 221.807 88.985 222.433 87.959L243.887 52.8512C244.515 51.8266 245.523 51.0927 246.691 50.8108C247.859 50.5288 249.092 50.7216 250.118 51.347L298.251 80.7613C299.276 81.3891 300.01 82.3977 300.292 83.5658C300.574 84.7338 300.381 85.9661 299.755 86.9921L286.465 108.741C283.669 113.305 279.176 116.573 273.973 117.829C268.77 119.085 263.282 118.226 258.711 115.44Z" fill="white"/>
<path d="M363.134 193.558C341.752 188.235 323.395 177.773 309.043 160.503C307.949 159.833 307.166 158.756 306.865 157.508C306.564 156.261 306.77 154.946 307.437 153.85L332.401 112.999C333.071 111.905 334.148 111.122 335.396 110.821C336.643 110.52 337.958 110.726 339.054 111.393L393.145 144.448C394.239 145.118 395.023 146.195 395.324 147.443C395.625 148.69 395.419 150.005 394.751 151.101L369.787 191.952C369.117 193.046 368.04 193.829 366.793 194.13C365.546 194.431 364.23 194.225 363.134 193.558Z" fill="#E6E6E6"/>
<path d="M348.711 180.44C337.453 179.211 325.753 170.213 313.937 159.19C312.912 158.562 312.178 157.553 311.896 156.385C311.615 155.217 311.807 153.985 312.433 152.959L333.887 117.851C334.515 116.827 335.523 116.093 336.691 115.811C337.859 115.529 339.092 115.722 340.118 116.347L388.251 145.761C389.276 146.389 390.01 147.398 390.292 148.566C390.574 149.734 390.381 150.966 389.755 151.992L376.465 173.741C373.669 178.305 369.176 181.573 363.973 182.829C358.77 184.085 353.282 183.226 348.711 180.44Z" fill="white"/>
<path d="M292.134 219.558C270.752 214.235 252.395 203.773 238.043 186.503C236.949 185.833 236.166 184.756 235.865 183.508C235.564 182.261 235.77 180.946 236.437 179.85L261.401 138.999C262.071 137.905 263.148 137.122 264.396 136.821C265.643 136.52 266.958 136.726 268.054 137.393L322.145 170.448C323.239 171.118 324.023 172.195 324.324 173.443C324.625 174.69 324.419 176.005 323.751 177.101L298.787 217.952C298.117 219.046 297.04 219.829 295.793 220.13C294.546 220.431 293.23 220.225 292.134 219.558Z" fill="#E6E6E6"/>
<path d="M277.711 206.44C266.453 205.211 254.753 196.213 242.937 185.19C241.912 184.562 241.178 183.553 240.896 182.385C240.615 181.217 240.807 179.985 241.433 178.959L262.887 143.851C263.515 142.827 264.523 142.093 265.691 141.811C266.859 141.529 268.092 141.722 269.118 142.347L317.251 171.761C318.276 172.389 319.01 173.398 319.292 174.566C319.574 175.734 319.381 176.966 318.755 177.992L305.465 199.741C302.669 204.305 298.176 207.573 292.973 208.829C287.77 210.085 282.282 209.226 277.711 206.44Z" fill="white"/>
<path d="M180.124 124.9C183.018 124.9 185.364 122.563 185.364 119.68C185.364 116.797 183.018 114.46 180.124 114.46C177.231 114.46 174.885 116.797 174.885 119.68C174.885 122.563 177.231 124.9 180.124 124.9Z" fill="#E6E6E6"/>
<path d="M6.26562 490.388L15.0476 496.097L41.2496 464.944L28.2896 456.517L6.26562 490.388Z" fill="#FFB6B6"/>
<path d="M0 499.348L27.0034 516.906L27.2254 516.565C29.0379 513.777 29.6688 510.384 28.9795 507.131C28.2902 503.879 26.3371 501.033 23.5498 499.22L21.0501 492.27L9.41367 490.028L7.05643 488.496L0 499.348Z" fill="#2F2E41"/>
<path d="M156.756 505.349L167.231 505.348L172.213 464.947L156.754 464.948L156.756 505.349Z" fill="#FFB6B6"/>
<path d="M156.387 516.277L188.597 516.275V515.868C188.597 512.543 187.276 509.354 184.925 507.003C182.574 504.652 179.385 503.331 176.06 503.331L170.176 498.868L159.198 503.332L156.387 503.332L156.387 516.277Z" fill="#2F2E41"/>
<path d="M48.336 256.046L142.264 258.111L151.574 269.749C151.574 269.749 150.769 265.646 151.486 270.153C152.202 274.659 170.323 364.515 166.898 367.528C163.472 370.542 173.393 391.348 174.121 392.617C174.85 393.886 182.703 456.517 174.121 461.667L170.898 483.528H155.898C155.898 483.528 140.871 466.139 143.895 462.986C146.919 459.834 138.27 449.352 137.94 443.731C137.609 438.11 134.451 412.616 136.898 408.528C139.344 404.44 142.652 389.1 136.445 383.153C130.238 377.205 101.29 304.123 101.29 304.123C101.29 304.123 92.8779 389.801 92.8977 396.528C92.9234 405.277 87.1782 400.947 87.1782 408.628C87.1782 410.179 68.4707 450.062 55.8977 462.528L29.8977 482.528L17.8977 473.528V460.528C17.8977 460.528 29.0184 436.407 32.8977 432.528C36.777 428.649 51.1008 416.774 51.1008 411.343C51.1008 405.912 57.8438 404.02 53.3085 396.82C48.7732 389.619 50.325 386.516 51.8767 383.412C53.4284 380.309 50.4858 253.153 50.4858 253.153L48.336 256.046Z" fill="#2F2E41"/>
<path d="M66.1204 78.6548L106.874 76.6967L117.303 93.8053C117.303 93.8053 147.763 96.8625 143.407 108.319C139.051 119.775 132.328 198.329 138.486 208.153C141.735 213.336 147.236 230.685 151.707 245.916C152.573 248.87 152.725 251.987 152.153 255.012C151.58 258.036 150.299 260.882 148.413 263.315C146.528 265.748 144.092 267.699 141.306 269.008C138.521 270.318 135.464 270.948 132.388 270.847C103.401 269.891 60.3508 267.625 55.2584 262.533C47.4999 254.774 40.5172 248.567 45.1723 246.24C49.8274 243.912 56.4857 210.153 56.4857 210.153C56.4857 210.153 25.5766 112.791 33.6439 109.923C41.7113 107.055 64.2327 93.8053 64.2327 93.8053L66.1204 78.6548Z" fill="#3F3D56"/>
<path d="M87.5018 67.501C103.177 67.501 115.885 54.7935 115.885 39.118C115.885 23.4426 103.177 10.7351 87.5018 10.7351C71.8264 10.7351 59.1189 23.4426 59.1189 39.118C59.1189 54.7935 71.8264 67.501 87.5018 67.501Z" fill="#FFB6B6"/>
<path d="M64.8269 266.894L56.8375 242.844L42.4617 245.491L51.8134 270.618C51.2448 272.09 51.0982 273.692 51.39 275.243C51.6818 276.794 52.4005 278.233 53.4652 279.398C54.5299 280.563 55.8985 281.407 57.4171 281.837C58.9357 282.267 60.544 282.265 62.0613 281.831C63.5787 281.396 64.9448 280.548 66.0062 279.38C67.0675 278.212 67.782 276.771 68.0694 275.219C68.3567 273.667 68.2055 272.066 67.6327 270.595C67.0599 269.124 66.0882 267.843 64.8269 266.894Z" fill="#FFB6B6"/>
<path d="M35.9647 110.131L35.5857 110.289C32.0608 111.759 28.9473 114.066 26.5148 117.01C24.0822 119.954 22.4039 123.447 21.6252 127.186C19.5875 136.939 17.5827 151.046 19.1678 164.255C21.9672 187.584 23.8336 197.849 27.5662 205.314C31.2989 212.779 32.232 209.98 31.2989 215.579C30.3657 221.178 25.6999 216.512 30.3657 223.977C35.0315 231.442 37.831 229.576 35.9647 233.309C34.0984 237.041 31.2989 237.041 35.0315 241.707C38.7641 246.373 38.7641 248.239 39.6973 250.106C40.6305 251.972 43.43 265.969 43.43 265.969C43.43 265.969 58.3606 261.304 66.759 263.17C66.759 263.17 59.2937 250.106 61.16 247.306C63.0264 244.507 65.8259 243.573 63.0264 240.774C60.2269 237.975 55.561 238.908 60.2269 236.108C64.8927 233.309 56.4942 204.381 56.4942 204.381L35.9647 110.131Z" fill="#3F3D56"/>
<path d="M260.43 163.279L235.862 157.061L230.352 170.6L256.56 176.25C257.495 177.522 258.766 178.508 260.23 179.097C261.694 179.687 263.293 179.856 264.848 179.586C266.403 179.316 267.852 178.618 269.032 177.57C270.212 176.521 271.076 175.165 271.527 173.653C271.978 172.14 271.999 170.532 271.586 169.009C271.173 167.485 270.344 166.107 269.191 165.03C268.038 163.952 266.607 163.217 265.06 162.908C263.512 162.599 261.909 162.727 260.43 163.279Z" fill="#FFB6B6"/>
<path d="M112.795 103.185L112.724 103.589C112.064 107.351 112.331 111.217 113.502 114.852C114.673 118.487 116.713 121.782 119.444 124.452C126.565 131.42 137.372 140.706 149.356 146.483C170.521 156.687 180.176 160.642 188.476 161.516C196.777 162.391 194.92 160.097 199.136 163.898C203.351 167.7 196.907 169.119 205.71 169.207C214.513 169.296 214.448 165.932 216.588 169.514C218.728 173.097 217.221 175.456 223.163 174.823C229.104 174.19 230.677 175.195 232.752 175.414C234.827 175.633 248.129 180.811 248.129 180.811C248.129 180.811 252.238 165.718 258.333 159.646C258.333 159.646 243.304 158.901 241.95 155.821C240.596 152.741 241.317 149.88 237.451 150.731C233.585 151.583 231.858 156.017 232.012 150.578C232.166 145.139 131.486 96.1528 131.486 96.1528L112.795 103.185Z" fill="#3F3D56"/>
<path d="M121.486 34.1527C118.426 35.1027 115.476 35.6627 113.486 33.1527C111.496 30.6427 112.016 27.7727 109.056 26.5627C106.58 25.7327 103.884 25.8575 101.496 26.9127C101.066 27.0727 100.646 27.2527 100.236 27.4327C100.006 27.2327 99.7758 27.0428 99.5258 26.8627C97.6444 25.5248 95.3216 24.9593 93.0358 25.2827C94.7066 26.0898 96.0814 27.4016 96.9658 29.0327C96.1458 29.4427 95.3158 29.8527 94.4758 30.2027C90.9458 31.6467 87.1278 32.2485 83.3247 31.9604C79.5217 31.6723 75.838 30.5021 72.5658 28.5427C75.8458 37.1827 73.2958 40.2627 68.4858 48.1527L68.2958 48.6127C68.7758 46.5428 62.4858 44.1527 62.4858 47.1527C62.7621 50.2263 63.4344 53.2513 64.4858 56.1527C58.3158 46.8627 54.6758 35.9927 57.0658 25.5627C57.5758 23.3727 57.8058 21.0227 59.1958 19.2427C60.5858 17.4727 63.1458 16.4327 65.1658 17.4327C65.4162 14.0412 66.5809 10.781 68.5362 7.99857C70.4914 5.21616 73.1641 3.01561 76.2701 1.63083C79.3761 0.246059 82.7993 -0.271173 86.1758 0.134145C89.5523 0.539462 92.7558 1.85217 95.4458 3.93271C97.9458 5.86271 99.9158 8.3927 102.146 10.6427C104.376 12.8927 107.016 14.9427 110.136 15.5027C112.116 15.8527 114.346 15.6427 115.926 16.8927C117.756 18.3427 117.776 20.8927 117.766 23.3427C115.975 23.2916 114.21 23.7755 112.696 24.7327C114.549 24.7792 116.341 25.4091 117.816 26.5327C117.844 26.5502 117.871 26.5703 117.896 26.5927C118.436 30.7127 118.216 31.5828 121.486 34.1527Z" fill="#2F2E41"/>
<path d="M252.164 52.4714C255.057 52.4714 257.403 50.1343 257.403 47.2513C257.403 44.3684 255.057 42.0312 252.164 42.0312C249.27 42.0312 246.924 44.3684 246.924 47.2513C246.924 50.1343 249.27 52.4714 252.164 52.4714Z" fill="#E6E6E6"/>
<path d="M308.52 58.6066C311.414 58.6066 313.759 56.2695 313.759 53.3865C313.759 50.5035 311.414 48.1664 308.52 48.1664C305.627 48.1664 303.281 50.5035 303.281 53.3865C303.281 56.2695 305.627 58.6066 308.52 58.6066Z" fill="#E6E6E6"/>
<path d="M349.814 97.4522C352.708 97.4522 355.053 95.1151 355.053 92.2321C355.053 89.3492 352.708 87.0121 349.814 87.0121C346.921 87.0121 344.575 89.3492 344.575 92.2321C344.575 95.1151 346.921 97.4522 349.814 97.4522Z" fill="#E6E6E6"/>
<path d="M330.442 202.591C333.335 202.591 335.681 200.254 335.681 197.371C335.681 194.488 333.335 192.151 330.442 192.151C327.548 192.151 325.203 194.488 325.203 197.371C325.203 200.254 327.548 202.591 330.442 202.591Z" fill="#E6E6E6"/>
<path d="M279.669 226.692C282.563 226.692 284.908 224.355 284.908 221.472C284.908 218.589 282.563 216.252 279.669 216.252C276.776 216.252 274.43 218.589 274.43 221.472C274.43 224.355 276.776 226.692 279.669 226.692Z" fill="#E6E6E6"/>
<path d="M226.622 216.904C229.516 216.904 231.862 214.567 231.862 211.684C231.862 208.801 229.516 206.464 226.622 206.464C223.729 206.464 221.383 208.801 221.383 211.684C221.383 214.567 223.729 216.904 226.622 216.904Z" fill="#E6E6E6"/>
<path d="M189.983 178.059C192.877 178.059 195.222 175.722 195.222 172.839C195.222 169.956 192.877 167.618 189.983 167.618C187.09 167.618 184.744 169.956 184.744 172.839C184.744 175.722 187.09 178.059 189.983 178.059Z" fill="#E6E6E6"/>
<path d="M203.046 77.2668C205.939 77.2668 208.285 74.9297 208.285 72.0468C208.285 69.1638 205.939 66.8267 203.046 66.8267C200.152 66.8267 197.807 69.1638 197.807 72.0468C197.807 74.9297 200.152 77.2668 203.046 77.2668Z" fill="#E6E6E6"/>
<path d="M218.764 126.205C221.657 126.205 224.003 123.868 224.003 120.985C224.003 118.102 221.657 115.765 218.764 115.765C215.87 115.765 213.524 118.102 213.524 120.985C213.524 123.868 215.87 126.205 218.764 126.205Z" fill="#E6E6E6"/>
<path d="M301.936 104.672C304.829 104.672 307.175 102.335 307.175 99.4522C307.175 96.5693 304.829 94.2321 301.936 94.2321C299.042 94.2321 296.697 96.5693 296.697 99.4522C296.697 102.335 299.042 104.672 301.936 104.672Z" fill="#E6E6E6"/>
<path d="M314.379 152.306C317.273 152.306 319.618 149.969 319.618 147.086C319.618 144.203 317.273 141.865 314.379 141.865C311.485 141.865 309.14 144.203 309.14 147.086C309.14 149.969 311.485 152.306 314.379 152.306Z" fill="#E6E6E6"/>
<path d="M351.053 163.398C359.372 163.398 366.116 156.679 366.116 148.391C366.116 140.102 359.372 133.383 351.053 133.383C342.735 133.383 335.991 140.102 335.991 148.391C335.991 156.679 342.735 163.398 351.053 163.398Z" fill="#6C63FF"/>
<path d="M276.395 191.456C284.714 191.456 291.458 184.737 291.458 176.449C291.458 168.16 284.714 161.441 276.395 161.441C268.076 161.441 261.332 168.16 261.332 176.449C261.332 184.737 268.076 191.456 276.395 191.456Z" fill="#6C63FF"/>
<path d="M257.403 99.4522C265.722 99.4522 272.465 92.733 272.465 84.4445C272.465 76.1559 265.722 69.4367 257.403 69.4367C249.084 69.4367 242.34 76.1559 242.34 84.4445C242.34 92.733 249.084 99.4522 257.403 99.4522Z" fill="#6C63FF"/>
<path d="M270.773 78.4797C295.206 70.8872 321.361 79.0981 345.927 72.09C351.577 70.5443 356.919 68.0357 361.716 64.6746C365.808 61.5716 369.651 58.1521 373.208 54.4476C380.598 47.1385 388.623 39.4637 399.726 39.5484C414.346 39.6599 425.572 50.5203 435.317 60.11C436.695 61.4653 438.817 59.3455 437.439 57.9886C428.484 49.1767 418.809 39.8803 406.063 37.2499C400.345 35.9819 394.377 36.4776 388.946 38.6718C384.235 40.8125 379.931 43.7552 376.227 47.3688C372.302 50.9686 368.682 54.8879 364.703 58.4307C360.55 62.2092 355.765 65.2291 350.567 67.353C339.305 71.8374 326.952 72.3784 314.974 72.2479C299.938 72.0841 284.543 71.06 269.976 75.5868C268.138 76.1579 268.922 79.0549 270.773 78.4797Z" fill="#3F3D56"/>
<path d="M440.675 39.8919L448.186 53.1317L451.82 59.538C452.466 60.6764 453.129 61.8067 453.758 62.9547C454.144 63.6598 454.988 64.9317 454.182 65.5998C453.475 65.9457 452.679 66.0698 451.899 65.9561C450.576 65.9589 449.251 65.9293 447.927 65.9159L440.479 65.8404L425.085 65.6844C424.696 65.6978 424.328 65.8618 424.058 66.1416C423.787 66.4215 423.636 66.7953 423.636 67.1844C423.636 67.5734 423.787 67.9473 424.058 68.2272C424.328 68.507 424.696 68.6709 425.085 68.6844C434.021 68.7749 442.963 68.9637 451.899 68.956C453.459 69.1052 455.019 68.6784 456.285 67.7563C456.905 67.1393 457.315 66.343 457.458 65.48C457.601 64.617 457.468 63.731 457.08 62.9473C456.199 61.0246 455.186 59.1654 454.047 57.3831L450.776 51.6175L443.266 38.3777C443.058 38.0486 442.73 37.8131 442.352 37.7208C441.974 37.6285 441.575 37.6867 441.239 37.8832C440.903 38.0796 440.656 38.3989 440.551 38.7736C440.446 39.1484 440.49 39.5494 440.675 39.8919Z" fill="#3F3D56"/>
<path d="M539.945 72.3335H470.914C470.535 72.335 470.16 72.2616 469.81 72.1177C469.46 71.9738 469.141 71.7621 468.873 71.4949C468.605 71.2277 468.392 70.9101 468.247 70.5604C468.102 70.2108 468.027 69.8359 468.027 69.4573C468.027 69.0786 468.102 68.7037 468.247 68.3541C468.392 68.0044 468.605 67.6868 468.873 67.4196C469.141 67.1524 469.46 66.9407 469.81 66.7968C470.16 66.6529 470.535 66.5796 470.914 66.581H539.945C540.323 66.5796 540.698 66.6529 541.049 66.7968C541.399 66.9407 541.717 67.1524 541.985 67.4196C542.254 67.6868 542.466 68.0044 542.612 68.3541C542.757 68.7037 542.832 69.0786 542.832 69.4573C542.832 69.8359 542.757 70.2108 542.612 70.5604C542.466 70.9101 542.254 71.2277 541.985 71.4949C541.717 71.7621 541.399 71.9738 541.049 72.1177C540.698 72.2616 540.323 72.335 539.945 72.3335Z" fill="#6C63FF"/>
<path d="M539.945 118.662H470.914C470.535 118.663 470.16 118.59 469.81 118.446C469.46 118.302 469.141 118.09 468.873 117.823C468.605 117.556 468.392 117.238 468.247 116.889C468.102 116.539 468.027 116.164 468.027 115.786C468.027 115.407 468.102 115.032 468.247 114.682C468.392 114.333 468.605 114.015 468.873 113.748C469.141 113.481 469.46 113.269 469.81 113.125C470.16 112.981 470.535 112.908 470.914 112.909H539.945C540.323 112.908 540.698 112.981 541.049 113.125C541.399 113.269 541.717 113.481 541.985 113.748C542.254 114.015 542.466 114.333 542.612 114.682C542.757 115.032 542.832 115.407 542.832 115.786C542.832 116.164 542.757 116.539 542.612 116.889C542.466 117.238 542.254 117.556 541.985 117.823C541.717 118.09 541.399 118.302 541.049 118.446C540.698 118.59 540.323 118.663 539.945 118.662Z" fill="#E6E6E6"/>
<path d="M607.71 95.4977H470.914C470.535 95.4991 470.16 95.4258 469.81 95.2818C469.46 95.1379 469.141 94.9263 468.873 94.6591C468.605 94.3918 468.392 94.0743 468.247 93.7246C468.102 93.3749 468.027 93 468.027 92.6214C468.027 92.2428 468.102 91.8679 468.247 91.5182C468.392 91.1686 468.605 90.851 468.873 90.5838C469.141 90.3165 469.46 90.1049 469.81 89.961C470.16 89.8171 470.535 89.7437 470.914 89.7451H607.71C608.088 89.7437 608.464 89.8171 608.814 89.961C609.164 90.1049 609.482 90.3165 609.751 90.5838C610.019 90.851 610.232 91.1686 610.377 91.5182C610.522 91.8679 610.597 92.2428 610.597 92.6214C610.597 93 610.522 93.3749 610.377 93.7246C610.232 94.0743 610.019 94.3918 609.751 94.6591C609.482 94.9263 609.164 95.1379 608.814 95.2818C608.464 95.4258 608.088 95.4991 607.71 95.4977Z" fill="#E6E6E6"/>
<path d="M508.509 214.581H439.479C439.1 214.582 438.725 214.509 438.375 214.365C438.024 214.221 437.706 214.01 437.438 213.742C437.17 213.475 436.957 213.158 436.812 212.808C436.666 212.458 436.592 212.083 436.592 211.705C436.592 211.326 436.666 210.951 436.812 210.602C436.957 210.252 437.17 209.934 437.438 209.667C437.706 209.4 438.024 209.188 438.375 209.044C438.725 208.9 439.1 208.827 439.479 208.828H508.509C508.888 208.827 509.263 208.9 509.613 209.044C509.964 209.188 510.282 209.4 510.55 209.667C510.818 209.934 511.031 210.252 511.176 210.602C511.322 210.951 511.396 211.326 511.396 211.705C511.396 212.083 511.322 212.458 511.176 212.808C511.031 213.158 510.818 213.475 510.55 213.742C510.282 214.01 509.964 214.221 509.613 214.365C509.263 214.509 508.888 214.582 508.509 214.581Z" fill="#6C63FF"/>
<path d="M508.509 260.909H439.479C439.1 260.911 438.725 260.837 438.375 260.693C438.024 260.55 437.706 260.338 437.438 260.071C437.17 259.803 436.957 259.486 436.812 259.136C436.666 258.787 436.592 258.412 436.592 258.033C436.592 257.654 436.666 257.28 436.812 256.93C436.957 256.58 437.17 256.263 437.438 255.995C437.706 255.728 438.024 255.517 438.375 255.373C438.725 255.229 439.1 255.155 439.479 255.157H508.509C508.888 255.155 509.263 255.229 509.613 255.373C509.964 255.517 510.282 255.728 510.55 255.995C510.818 256.263 511.031 256.58 511.176 256.93C511.322 257.28 511.396 257.654 511.396 258.033C511.396 258.412 511.322 258.787 511.176 259.136C511.031 259.486 510.818 259.803 510.55 260.071C510.282 260.338 509.964 260.55 509.613 260.693C509.263 260.837 508.888 260.911 508.509 260.909Z" fill="#E6E6E6"/>
<path d="M576.275 237.745H439.479C439.1 237.747 438.725 237.673 438.375 237.529C438.024 237.385 437.706 237.174 437.438 236.907C437.17 236.639 436.957 236.322 436.812 235.972C436.666 235.622 436.592 235.248 436.592 234.869C436.592 234.49 436.666 234.115 436.812 233.766C436.957 233.416 437.17 233.098 437.438 232.831C437.706 232.564 438.024 232.352 438.375 232.208C438.725 232.065 439.1 231.991 439.479 231.993H576.275C576.653 231.991 577.028 232.065 577.379 232.208C577.729 232.352 578.047 232.564 578.315 232.831C578.584 233.098 578.796 233.416 578.942 233.766C579.087 234.115 579.162 234.49 579.162 234.869C579.162 235.248 579.087 235.622 578.942 235.972C578.796 236.322 578.584 236.639 578.315 236.907C578.047 237.174 577.729 237.385 577.379 237.529C577.028 237.673 576.653 237.747 576.275 237.745Z" fill="#E6E6E6"/>
<path d="M202.016 264.824H132.985C132.607 264.826 132.231 264.752 131.881 264.609C131.531 264.465 131.213 264.253 130.944 263.986C130.676 263.719 130.463 263.401 130.318 263.051C130.173 262.702 130.098 262.327 130.098 261.948C130.098 261.569 130.173 261.195 130.318 260.845C130.463 260.495 130.676 260.178 130.944 259.91C131.213 259.643 131.531 259.432 131.881 259.288C132.231 259.144 132.607 259.07 132.985 259.072H202.016C202.395 259.07 202.77 259.144 203.12 259.288C203.47 259.432 203.789 259.643 204.057 259.91C204.325 260.178 204.538 260.495 204.683 260.845C204.828 261.195 204.903 261.569 204.903 261.948C204.903 262.327 204.828 262.702 204.683 263.051C204.538 263.401 204.325 263.719 204.057 263.986C203.789 264.253 203.47 264.465 203.12 264.609C202.77 264.752 202.395 264.826 202.016 264.824Z" fill="#6C63FF"/>
<path d="M202.016 311.153H132.985C132.607 311.154 132.231 311.081 131.881 310.937C131.531 310.793 131.213 310.581 130.944 310.314C130.676 310.047 130.463 309.729 130.318 309.38C130.173 309.03 130.098 308.655 130.098 308.276C130.098 307.898 130.173 307.523 130.318 307.173C130.463 306.824 130.676 306.506 130.944 306.239C131.213 305.972 131.531 305.76 131.881 305.616C132.231 305.472 132.607 305.399 132.985 305.4H202.016C202.395 305.399 202.77 305.472 203.12 305.616C203.47 305.76 203.789 305.972 204.057 306.239C204.325 306.506 204.538 306.824 204.683 307.173C204.828 307.523 204.903 307.898 204.903 308.276C204.903 308.655 204.828 309.03 204.683 309.38C204.538 309.729 204.325 310.047 204.057 310.314C203.789 310.581 203.47 310.793 203.12 310.937C202.77 311.081 202.395 311.154 202.016 311.153Z" fill="#E6E6E6"/>
<path d="M269.781 287.989H132.985C132.607 287.99 132.231 287.917 131.881 287.773C131.531 287.629 131.213 287.417 130.944 287.15C130.676 286.883 130.463 286.565 130.318 286.215C130.173 285.866 130.098 285.491 130.098 285.112C130.098 284.734 130.173 284.359 130.318 284.009C130.463 283.659 130.676 283.342 130.944 283.075C131.213 282.807 131.531 282.596 131.881 282.452C132.231 282.308 132.607 282.235 132.985 282.236H269.781C270.16 282.235 270.535 282.308 270.885 282.452C271.235 282.596 271.554 282.807 271.822 283.075C272.09 283.342 272.303 283.659 272.448 284.009C272.593 284.359 272.668 284.734 272.668 285.112C272.668 285.491 272.593 285.866 272.448 286.215C272.303 286.565 272.09 286.883 271.822 287.15C271.554 287.417 271.235 287.629 270.885 287.773C270.535 287.917 270.16 287.99 269.781 287.989Z" fill="#E6E6E6"/>
<path d="M348.425 148.676L400.04 187.617L414.731 198.7C416.272 199.863 417.769 197.259 416.245 196.11L364.629 157.169L349.939 146.086C348.398 144.923 346.901 147.527 348.425 148.676Z" fill="#3F3D56"/>
<path d="M392.346 201.076C403.602 206.478 415.841 209.532 428.315 210.054C428.545 210.051 428.772 209.996 428.977 209.892C429.183 209.789 429.362 209.64 429.501 209.457C429.641 209.274 429.737 209.062 429.782 208.836C429.827 208.61 429.82 208.378 429.762 208.155L421.768 176.071C421.302 174.199 418.408 174.992 418.875 176.869L426.869 208.953L428.315 207.054C416.369 206.56 404.647 203.645 393.86 198.486C392.127 197.655 390.603 200.241 392.346 201.076Z" fill="#3F3D56"/>
<path d="M274.448 175.758L237.359 228.801L226.905 243.751C225.797 245.337 228.396 246.838 229.496 245.265L266.584 192.223L277.038 177.273C278.147 175.687 275.547 174.186 274.448 175.758Z" fill="#3F3D56"/>
<path d="M223.636 221.56C218.658 232.967 216.068 245.274 216.028 257.721C216.03 257.951 216.086 258.177 216.189 258.383C216.292 258.588 216.441 258.767 216.624 258.907C216.807 259.046 217.02 259.142 217.245 259.187C217.471 259.232 217.704 259.225 217.926 259.167L249.786 249.939C250.157 249.822 250.469 249.566 250.655 249.224C250.841 248.883 250.887 248.482 250.784 248.107C250.681 247.732 250.436 247.411 250.1 247.213C249.765 247.015 249.367 246.955 248.988 247.046L217.129 256.274L219.028 257.721C219.042 245.802 221.492 234.012 226.226 223.074C226.988 221.321 224.405 219.792 223.636 221.56Z" fill="#3F3D56"/>
</svg>
