<svg width="318" height="615" viewBox="0 0 318 615" fill="none" xmlns="http://www.w3.org/2000/svg">
<path d="M247.454 487.864L228.425 486.818L231.046 545.206L243.94 545.915L247.454 487.864Z" fill="#A0616A"/>
<path d="M229.357 526.746L235.97 529.746V533.751C235.97 533.751 237.554 529.112 246.108 528.083L247.138 531.964C247.138 531.964 250.464 535.765 249.91 542.655L247.771 561.109L241.318 560.974L240.249 548.139C240.249 548.139 238.465 545.229 230.308 559.089C230.308 559.089 227.301 563.671 213.325 559.018C211.404 558.378 210.066 556.589 210.087 554.565C210.099 553.447 210.533 552.414 211.933 552.041C215.497 551.09 218.982 552.278 221.279 549.427C223.576 546.576 229.357 526.746 229.357 526.746Z" fill="#2F2E41"/>
<path d="M199.815 541.439L180.786 540.393L183.407 598.781L196.302 599.491L199.815 541.439Z" fill="#A0616A"/>
<path d="M181.719 580.322L188.332 583.321V587.326C188.332 587.326 189.916 582.688 198.469 581.658L199.499 585.539C199.499 585.539 202.826 589.34 202.271 596.231L200.133 614.684L193.68 614.549L192.61 601.714C192.61 601.714 190.827 598.805 182.669 612.665C182.669 612.665 179.663 617.246 165.686 612.593C163.765 611.954 162.428 610.164 162.449 608.14C162.46 607.023 162.895 605.989 164.295 605.616C167.859 604.665 171.344 605.853 173.64 603.002C175.937 600.151 181.719 580.322 181.719 580.322Z" fill="#2F2E41"/>
<path d="M90.1743 451.571L102.033 451.57L107.675 405.827L90.1719 405.828L90.1743 451.571Z" fill="#FFB6B6"/>
<path d="M130.805 451.302C131.174 451.924 131.369 453.931 131.369 454.654C131.369 456.877 129.567 458.679 127.344 458.679H90.6179C89.1014 458.679 87.872 457.45 87.872 455.933V454.404C87.872 454.404 86.0552 449.809 89.7957 444.145C89.7957 444.145 94.4446 448.58 101.391 441.633L103.44 437.922L118.268 448.767L126.488 449.779C128.286 450 129.88 449.744 130.805 451.302Z" fill="#2F2E41"/>
<path d="M45.1743 451.571L57.0334 451.57L62.6749 405.827L45.1719 405.828L45.1743 451.571Z" fill="#FFB6B6"/>
<path d="M85.8051 451.302C86.1744 451.924 86.3692 453.931 86.3692 454.654C86.3692 456.877 84.5672 458.679 82.3442 458.679H45.6179C44.1014 458.679 42.872 457.45 42.872 455.933V454.404C42.872 454.404 41.0552 449.809 44.7957 444.145C44.7957 444.145 49.4446 448.58 56.3913 441.633L58.4398 437.922L73.2684 448.767L81.4876 449.779C83.2858 450 84.8802 449.744 85.8051 451.302Z" fill="#2F2E41"/>
<path d="M36.4405 205.856L21.4405 239.856L40.4405 425.856L63.9405 427.356L73.4405 262.856L82.4405 427.856L110.44 424.856L117.082 215.395L36.4405 205.856Z" fill="#2F2E41"/>
<path d="M95.539 70.3555L65.4405 64.8555L59.3618 70.9343L28.4405 83.8555L33.4405 180.856C33.4405 180.856 23.4405 187.517 28.4405 196.686C33.4405 205.856 32.4405 216.856 32.4405 216.856H117.082L113.441 161.856L123.441 91.8555L100.074 80.793L95.539 70.3555Z" fill="#CCCCCC"/>
<path d="M73.7235 183.364C82.2744 185.405 90.2589 182.648 91.5571 177.206C92.8553 171.764 86.976 165.699 78.4217 163.658C75.0158 162.796 71.453 162.762 68.0313 163.559L31.6913 155.368L28.2108 172.503L64.4051 178.759C67.0989 181.016 70.2942 182.595 73.7235 183.364Z" fill="#FFB6B6"/>
<path d="M34.4405 88.8555L28.4405 83.8555C28.4405 83.8555 16.4405 89.8555 14.4405 94.8555C12.4405 99.8555 0.440494 147.856 0.440494 147.856C0.440494 147.856 -1.91384 174.162 4.26332 177.509C10.4405 180.856 49.4405 178.856 49.4405 178.856L52.4405 158.856L36.4405 152.856L34.4405 88.8555Z" fill="#CCCCCC"/>
<path d="M82.3793 62.0176C96.978 62.0176 108.813 50.183 108.813 35.5843C108.813 20.9857 96.978 9.15109 82.3793 9.15109C67.7806 9.15109 55.946 20.9857 55.946 35.5843C55.946 50.183 67.7806 62.0176 82.3793 62.0176Z" fill="#FFB6B6"/>
<path d="M63.421 59.0496C60.2543 59.3326 55.0849 51.2318 55.3153 43.3865C55.4636 38.3394 51.0818 37.3471 50.7562 30.8382C50.5666 27.0457 56.3922 25.8631 56.7924 22.8212C57.5175 17.3096 61.0733 13.6008 61.5173 13.1499C65.3494 9.258 68.054 10.5232 72.5606 6.01256C75.2738 3.29693 74.5785 2.55294 76.4058 1.34841C81.6793 -2.12793 91.1551 1.63976 96.8217 6.71499C98.7826 8.47122 106.092 6.55177 109.285 11.5112C113.046 17.3543 112.173 29.2706 110.56 30.8432C109.58 31.7986 107.342 29.4644 101.276 27.9663C95.6597 26.5792 100.958 33.4385 94.465 32.2874C86.7875 30.9263 85.2844 28.5905 82.4091 29.9914C79.3696 31.4724 76.9946 36.058 77.6842 39.6627C78.0264 41.4515 79.0181 42.449 78.4588 43.3586C77.4378 45.0193 76.2662 43.3906 74.9566 45.0572C73.4333 46.9957 77.2186 51.9687 76.5058 52.4489C76.3622 52.5457 75.9275 52.5331 71.8417 48.6037C70.2103 47.0347 69.732 46.0712 69.4128 46.2191C68.8961 46.4585 65.5093 49.6136 66.8025 52.1051C68.815 55.9824 66.2394 56.1032 66.8025 58.7134C67.3835 61.4063 65.4334 58.8698 63.421 59.0496Z" fill="#2F2E41"/>
<path d="M57.9405 139.356L53.9405 142.356L74.9405 171.356L78.9405 170.356L57.9405 139.356Z" fill="#3F3D56"/>
<path d="M111.941 165.902V216.517C111.941 220.993 108.299 224.634 103.823 224.634H53.2087C48.7326 224.634 45.0912 220.993 45.0912 216.517V165.902C45.0912 161.426 48.7326 157.785 53.2087 157.785H103.823C108.299 157.785 111.941 161.426 111.941 165.902Z" fill="white"/>
<path d="M85.2536 178.457H68.9134C68.5015 178.457 68.1663 178.121 68.1663 177.709C68.1663 177.297 68.5015 176.962 68.9134 176.962H85.2536C85.6655 176.962 86.0006 177.297 86.0006 177.709C86.0006 178.121 85.6655 178.457 85.2536 178.457Z" fill="#3F3D56"/>
<path d="M85.2536 194.387H68.9134C68.5015 194.387 68.1663 194.052 68.1663 193.64C68.1663 193.228 68.5015 192.893 68.9134 192.893H85.2536C85.6655 192.893 86.0006 193.228 86.0006 193.64C86.0006 194.052 85.6655 194.387 85.2536 194.387Z" fill="#3F3D56"/>
<path d="M77.1362 216.352H60.796C60.384 216.352 60.0489 216.017 60.0489 215.605C60.0489 215.193 60.384 214.858 60.796 214.858H77.1362C77.5481 214.858 77.8831 215.193 77.8831 215.605C77.8831 216.017 77.5481 216.352 77.1362 216.352Z" fill="#3F3D56"/>
<path d="M94.0219 186.427H60.1451C59.7332 186.427 59.398 186.092 59.398 185.68C59.398 185.268 59.7332 184.933 60.1451 184.933H94.0219C94.4338 184.933 94.7689 185.268 94.7689 185.68C94.7689 186.092 94.4338 186.427 94.0219 186.427Z" fill="#3F3D56"/>
<path d="M91.5199 187.479C83.7264 191.547 79.508 198.865 82.0975 203.825C84.6871 208.784 93.103 209.506 100.899 205.435C104.035 203.852 106.747 201.541 108.807 198.695L141.611 181.043L132.999 165.825L101.574 184.843C98.0604 184.906 94.6128 185.81 91.5199 187.479Z" fill="#FFB6B6"/>
<path d="M117.441 92.8555C117.441 92.8555 126.441 86.8555 132.441 102.856C137.174 115.478 145.953 152.685 149.448 167.83C150.376 171.851 149.033 176.051 145.95 178.792L141.941 182.356L122.441 196.856L109.145 177.509L125.293 167.773L106.878 127.824L117.441 92.8555Z" fill="#CCCCCC"/>
<path d="M211.735 453.8C211.946 451.69 211.649 449.561 210.868 447.589L214.162 425.675L203.689 424.413L201.476 446.778C200.369 448.586 199.712 450.633 199.558 452.747C199.102 458.033 201.458 462.552 204.821 462.842C208.184 463.133 211.28 459.084 211.735 453.8Z" fill="#A0616A"/>
<path d="M242.048 324.332L233.404 369.745L222.683 393.568L216.299 439.505L199.893 444.469L205.038 386.221C205.038 386.221 221.607 332.099 226.049 326.588C230.492 321.076 242.048 324.332 242.048 324.332Z" fill="#6C63FF"/>
<path d="M250.372 280.971L239.964 314.926L275.77 325.902L286.179 291.948L250.372 280.971Z" fill="#2F2E41"/>
<path d="M268.703 304.676C278.788 304.676 286.963 296.501 286.963 286.416C286.963 276.331 278.788 268.156 268.703 268.156C258.618 268.156 250.443 276.331 250.443 286.416C250.443 296.501 258.618 304.676 268.703 304.676Z" fill="#A0616A"/>
<path d="M285.624 260.711C280.001 257.988 269.368 259.265 265.565 259.684C262.169 260.059 259.815 262.028 257.499 263.965C252.244 268.361 249.939 273.718 249.204 275.605C245.728 284.526 249.151 288.278 245.518 292.034C241.626 296.059 236.169 293.334 233.798 297.221C231.644 300.753 235.638 303.838 234.095 309.469C232.315 315.967 225.481 317.395 226.178 319.874C226.952 322.625 236.189 323.782 243.554 320.473C244.547 320.027 253.279 315.973 253.702 309.401C253.973 305.186 250.516 304.751 249.56 298.676C248.896 294.453 249.969 290.866 251.682 285.144C252.876 281.157 253.473 279.163 254.76 277.308C255.381 276.413 261.227 268.272 269.896 269.791C277.538 271.131 282.675 279.153 281.685 284.211C281.1 287.198 278.32 289.448 279.414 291.619C280.22 293.22 282.291 293.108 282.55 294.607C282.793 296.013 281.2 297.455 279.991 298.55C278.462 299.933 277.091 300.592 276.575 300.879C272.898 302.929 271.535 309.044 271.555 312.848C271.586 318.527 274.735 325.513 281.113 327.934C288.277 330.655 297.014 326.668 297.344 323.455C297.536 321.589 294.788 321.005 294.348 317.809C293.851 314.204 297.003 312.447 296.001 310.211C295.094 308.186 296.417 311.076 293.91 308.22C293.604 307.871 291.988 305.966 291.959 303.569C291.922 300.447 294.602 298.387 296.082 296.729C301.621 290.522 302.495 278.811 297.363 273.089C294.45 269.841 296.253 265.858 285.624 260.711Z" fill="#2F2E41"/>
<path d="M288.301 278.415C289.952 274.672 285.585 269.91 285.016 269.304C280.756 264.769 274.638 264.604 271.623 264.523C268.984 264.452 263.327 264.3 259.046 268.097C256.731 270.15 254.571 273.579 255.541 275.127C256.134 276.073 257.851 276.12 261.286 276.213C264.375 276.296 265.493 275.889 267.221 276.681C268.497 277.266 268.812 277.912 269.929 278.862C272.951 281.432 276.666 281.824 277.765 281.94C280.361 282.213 286.676 282.099 288.301 278.415Z" fill="#2F2E41"/>
<path d="M244.72 320.312L229.235 325.077L230.426 339.371L225.661 427.515L305.468 429.898L306.486 421.694L298.321 392.152L301.894 333.415L279.263 321.504L273.307 309.592L251.866 308.401L244.72 320.312Z" fill="#6C63FF"/>
<path d="M279.858 412.626L225.066 429.302C225.066 429.302 191.973 438.771 174.106 448.301C156.238 457.83 158.362 466.477 158.362 466.477L180.993 567.724L202.434 568.915L199.526 475.781L222.683 472.624L226.257 506.727L245.315 511.491L264.373 445.978C265.742 454.191 273.345 459.861 281.605 458.814C288.504 457.941 296.924 456.602 304.872 454.616C322.739 450.152 304.872 418.582 304.872 418.582L279.858 412.626Z" fill="#2F2E41"/>
<path d="M223.279 463.25C223.279 463.25 226.852 434.662 232.808 402.501C238.764 370.341 260.204 378.679 260.204 378.679L298.321 419.177L267.351 439.427L223.279 463.25Z" fill="#2F2E41"/>
<path d="M255.606 432.364C257.171 430.932 258.369 429.147 259.102 427.157L276.169 413.022L269.206 405.098L252.643 420.289C250.613 420.899 248.758 421.986 247.234 423.459C243.369 427.094 242.112 432.033 244.424 434.491C246.737 436.95 251.743 435.998 255.606 432.364Z" fill="#A0616A"/>
<path d="M269.78 353.655L283.412 380.21L260.009 410.39L271.789 422.722L301.072 398.032L314.808 385.095C319.79 380.403 317.198 374.217 314.729 367.835C304.872 342.349 307.255 332.819 297.725 330.437C289.974 328.499 269.78 353.655 269.78 353.655Z" fill="#6C63FF"/>
<path d="M207.335 403.638L209.563 397.398L251.011 404.529L286.22 386.702L288.003 391.604L249.674 414.334L207.335 403.638Z" fill="#E6E6E6"/>
<path d="M289.786 388.484L250.12 408.54L204.783 401.989L209.118 421.019L247.446 427.704L283.681 410.341L289.786 388.484Z" fill="#3F3D56"/>
<path d="M48.7718 172.303L51.0002 166.064L92.4485 173.195L127.657 155.367L129.44 160.27L91.1114 183L48.7718 172.303Z" fill="#E6E6E6"/>
<path d="M131.223 157.15L91.5571 177.206L46.2202 170.654L50.5546 189.685L88.883 196.37L125.118 179.007L131.223 157.15Z" fill="#3F3D56"/>
</svg>
